Coordinates
version=1
nRows=29
nColumns=24
inDegrees=yes

Units are S.I. units (second, meters, Newtons, ...)
Angles are in degrees.

endheader
time	pelvis_tilt	pelvis_list	pelvis_rotation	pelvis_tx	pelvis_ty	pelvis_tz	hip_flexion_r	hip_adduction_r	hip_rotation_r	knee_angle_r	ankle_angle_r	subtalar_angle_r	mtp_angle_r	hip_flexion_l	hip_adduction_l	hip_rotation_l	knee_angle_l	ankle_angle_l	subtalar_angle_l	mtp_angle_l	lumbar_extension	lumbar_bending	lumbar_rotation
      6.55000000	      2.41102078	      1.02721512	     -2.97648006	      1.55084938	      0.87280926	     -0.20383767	    -17.54573342	      1.89174688	      7.70920344	    -14.53055473	     15.25827273	      1.90319118	      0.00000000	     18.69827341	      3.67487938	    -13.51332289	     -1.94043601	      3.29364851	     -1.47465388	      0.00000000	    -21.97299825	     -3.41131603	      5.97596127
      6.56000000	      2.57386121	      1.33683100	     -2.76133379	      1.56439138	      0.87208557	     -0.20477420	    -17.80106686	      1.52868166	      6.84111797	    -16.06036136	     14.53440395	      2.84959031	      0.00000000	     18.68273625	      4.07305300	    -11.63493453	     -3.35900033	      2.94918477	     -2.98981018	      0.00000000	    -21.95945351	     -3.88955523	      5.53270202
      6.57000000	      2.74904424	      1.69436637	     -2.55725763	      1.57820052	      0.87162143	     -0.20578802	    -17.91456152	      1.08145787	      5.73013859	    -17.83471973	     13.48317646	      3.84209859	      0.00000000	     18.58902963	      4.56365769	     -9.60373513	     -4.88289415	      2.30025050	     -4.98068065	      0.00000000	    -21.90872951	     -4.41519223	      5.09339357
      6.58000000	      2.96327960	      2.08392343	     -2.25570520	      1.59212457	      0.87148217	     -0.20702583	    -17.89560260	      0.57269721	      4.24457857	    -19.87030859	     12.09405204	      4.98097858	      0.00000000	     18.43130718	      5.15934763	     -7.70239243	     -6.51291479	      1.60416483	     -6.80205464	      0.00000000	    -21.90612990	     -4.92107593	      4.43211599
      6.59000000	      3.19888019	      2.50612454	     -1.91330524	      1.60612543	      0.87173942	     -0.20843062	    -17.71795442	     -0.02419044	      2.56233175	    -22.14691854	     10.24643574	      6.10407777	      0.00000000	     18.16832662	      5.84579785	     -5.93351633	     -8.09447833	      0.83290142	     -8.53397234	      0.00000000	    -21.92419545	     -5.41584130	      3.65407380
      6.60000000	      3.43908764	      2.98060850	     -1.55726262	      1.62017774	      0.87236601	     -0.20993215	    -17.35168744	     -0.74102546	      0.76863764	    -24.66809417	      7.96294433	      7.08137501	      0.00000000	     17.80420331	      6.61968390	     -4.42293293	     -9.57150295	      0.17338492	    -10.03733557	      0.00000000	    -21.94198973	     -5.93570569	      2.75981330
      6.61000000	      3.66871235	      3.47729949	     -1.22107533	      1.63413081	      0.87332117	     -0.21148717	    -16.74989311	     -1.55990625	     -1.02128747	    -27.45538725	      5.25068339	      7.80238022	      0.00000000	     17.34746641	      7.42211233	     -3.19490827	    -10.89836399	     -0.21456824	    -11.22405183	      0.00000000	    -21.96171311	     -6.44542099	      1.79781096
      6.62000000	      3.85978316	      3.98901239	     -0.91202385	      1.64790430	      0.87458117	     -0.21303219	    -15.89015670	     -2.44660428	     -2.61951780	    -30.46541196	      2.09788448	      8.08438654	      0.00000000	     16.79902357	      8.22774563	     -2.17636598	    -12.00143461	     -0.40834784	    -12.16146237	      0.00000000	    -21.97062397	     -6.95067297	      0.80399981
      6.63000000	      3.99852463	      4.47181766	     -0.68098731	      1.66140520	      0.87605866	     -0.21448752	    -14.73387829	     -3.35841208	     -3.94218088	    -33.69750038	     -1.41459053	      7.89483199	      0.00000000	     16.16538812	      8.96453526	     -1.41506125	    -12.84162297	     -0.32892139	    -12.83597430	      0.00000000	    -21.95648266	     -7.41133021	     -0.12692998
      6.64000000	      4.08883639	      4.95363314	     -0.55376431	      1.67456745	      0.87768177	     -0.21580319	    -13.27799233	     -4.31251977	     -4.93853195	    -37.13648272	     -5.14884457	      7.27241984	      0.00000000	     15.44874479	      9.64319224	     -0.96812961	    -13.40754680	     -0.00080242	    -13.16707313	      0.00000000	    -21.93782298	     -7.87503936	     -0.96871608
      6.65000000	      4.05073266	      5.37060373	     -0.46464831	      1.68737162	      0.87919096	     -0.21718697	    -11.45243623	     -5.23728735	     -5.73631829	    -40.74728955	     -8.96678389	      6.21876780	      0.00000000	     14.74120215	     10.23212947	     -0.64673363	    -13.70644640	      0.57839386	    -13.35788684	      0.00000000	    -21.80012574	     -8.19741786	     -1.75689467
      6.66000000	      3.90020272	      5.80480092	     -0.49648116	      1.69980847	      0.88059087	     -0.21836552	     -9.28117471	     -6.17778747	     -6.16399281	    -44.48151124	    -12.71306074	      4.79524665	      0.00000000	     14.03490868	     10.77695409	     -0.59304628	    -13.73079704	      1.28499844	    -13.25862452	      0.00000000	    -21.57339424	     -8.56973538	     -2.42188173
      6.67000000	      3.69613915	      6.23197471	     -0.64159070	      1.71200008	      0.88193130	     -0.21936773	     -6.88533702	     -7.07426798	     -6.23182064	    -48.21441845	    -16.29835130	      3.14081930	      0.00000000	     13.26284636	     11.27099957	     -0.76563549	    -13.47974814	      2.04442419	    -12.99249772	      0.00000000	    -21.28966555	     -8.94774154	     -2.98833978
      6.68000000	      3.43370230	      6.66077673	     -0.87326969	      1.72389790	      0.88312375	     -0.22026791	     -4.27730390	     -7.92634187	     -6.03307673	    -51.91135371	    -19.49284371	      1.41208698	      0.00000000	     12.46926580	     11.74374260	     -1.09847928	    -13.01515874	      2.80589321	    -12.58686874	      0.00000000	    -20.96078205	     -9.33010667	     -3.39930902
      6.69000000	      3.15653471	      7.07840618	     -1.16708346	      1.73560895	      0.88422860	     -0.22105365	     -1.56663375	     -8.68128093	     -5.58768053	    -55.46649359	    -22.15021524	     -0.22630118	      0.00000000	     11.61526337	     12.19738148	     -1.51274935	    -12.36938591	      3.52282826	    -12.09977499	      0.00000000	    -20.61647069	     -9.71112144	     -3.69108451
      6.70000000	      2.83538668	      7.47942544	     -1.46303524	      1.74718724	      0.88519854	     -0.22180188	      1.23030549	     -9.32739632	     -4.99519386	    -58.82398837	    -24.11371930	     -1.58392370	      0.00000000	     10.76375207	     12.63981706	     -1.96285482	    -11.61715491	      4.20692009	    -11.46431457	      0.00000000	    -20.21468873	    -10.08403044	     -3.81952613
      6.71000000	      2.71171364	      7.76117987	     -1.77759892	      1.75863454	      0.88643465	     -0.22247688	      3.77756734	     -9.73029813	     -4.29877914	    -61.83344644	    -25.44588142	     -2.77159768	      0.00000000	      9.62910517	     12.99077347	     -2.28828519	    -10.71896569	      4.70971607	    -11.08170973	      0.00000000	    -20.07485519	    -10.30908114	     -3.97366581
      6.72000000	      2.50876784	      7.97989076	     -2.01822997	      1.76993120	      0.88748893	     -0.22320221	      6.37434119	     -9.98730671	     -3.61689777	    -64.56595748	    -25.95629156	     -3.52419233	      0.00000000	      8.59587618	     13.29264920	     -2.56410413	     -9.84986151	      5.21723030	    -10.56535878	      0.00000000	    -19.85971431	    -10.47137279	     -3.96670108
      6.73000000	      2.41365812	      8.07354664	     -2.20108460	      1.78121622	      0.88869032	     -0.22394904	      8.73857824	    -10.03885718	     -3.00041210	    -66.89686500	    -25.79247824	     -3.96740113	      0.00000000	      7.40456714	     13.49289601	     -2.68255212	     -8.92541822	      5.62743008	    -10.17769470	      0.00000000	    -19.77363429	    -10.48138341	     -3.96597027
      6.74000000	      2.38817379	      8.08224169	     -2.28424883	      1.79238912	      0.88993505	     -0.22478012	     10.90808030	     -9.96627320	     -2.51677881	    -68.85759614	    -24.93331193	     -4.04290332	      0.00000000	      6.14267955	     13.62586829	     -2.64367151	     -8.02662764	      5.96420845	     -9.86329464	      0.00000000	    -19.81547619	    -10.38623663	     -3.98751372
      6.75000000	      2.32387861	      7.96769277	     -2.24534235	      1.80347930	      0.89106958	     -0.22573752	     12.98560187	     -9.74427008	     -2.19107706	    -70.43975086	    -23.50929253	     -3.78698956	      0.00000000	      4.94310299	     13.63503155	     -2.46071884	     -7.19720618	      6.37298790	     -9.53245617	      0.00000000	    -19.83411424	    -10.12698032	     -3.97105314
      6.76000000	      2.23540188	      7.80963440	     -2.13561890	      1.81444637	      0.89207612	     -0.22669397	     14.98212606	     -9.46323401	     -1.97403950	    -71.67448525	    -21.60135880	     -3.30314609	      0.00000000	      3.80379640	     13.58734226	     -2.20982310	     -6.43399723	      6.75290303	     -9.19008172	      0.00000000	    -19.86327870	     -9.83216327	     -3.97420643
      6.77000000	      2.11443788	      7.63100644	     -1.95586326	      1.82533132	      0.89289350	     -0.22770246	     16.90592184	     -9.17202717	     -1.86392236	    -72.57350209	    -19.27786947	     -2.57958895	      0.00000000	      2.73010979	     13.50850454	     -1.90166740	     -5.72930830	      7.14975676	     -8.85793284	      0.00000000	    -19.87249448	     -9.51139584	     -4.00686907
      6.78000000	      1.90730344	      7.51895790	     -1.72888402	      1.83616523	      0.89336680	     -0.22876421	     18.84426037	     -8.97552923	     -1.81355669	    -73.18719112	    -16.59886105	     -1.68310084	      0.00000000	      1.78504692	     13.49022418	     -1.58373729	     -5.08035070	      7.52792095	     -8.55695024	      0.00000000	    -19.77685041	     -9.27147970	     -4.07396388
      6.79000000	      1.76196904	      7.29365652	     -1.40405563	      1.84693700	      0.89384795	     -0.22989654	     20.54927022	     -8.68421052	     -1.91867437	    -73.39440606	    -13.75238276	     -0.72468026	      0.00000000	      0.79489462	     13.33936123	     -1.15472657	     -4.49422567	      7.99186212	     -8.24115444	      0.00000000	    -19.79342728	     -8.86943388	     -4.21942313
      6.80000000	      1.58824895	      7.12434837	     -1.03438951	      1.85758564	      0.89410242	     -0.23099827	     22.19169899	     -8.47623166	     -2.08089228	    -73.28851330	    -10.78099792	      0.21138784	      0.00000000	     -0.11632665	     13.22753688	     -0.68043644	     -3.98453618	      8.41753883	     -7.94825280	      0.00000000	    -19.81329963	     -8.55636805	     -4.41721570
      6.81000000	      1.41259171	      6.92527664	     -0.63795443	      1.86814700	      0.89418033	     -0.23212447	     23.72323178	     -8.26144746	     -2.31014611	    -72.83360946	     -7.87590495	      1.02867731	      0.00000000	     -0.98003915	     13.07441744	     -0.17088333	     -3.54753100	      8.92916580	     -7.71502102	      0.00000000	    -19.85045123	     -8.19075297	     -4.63683001
      6.82000000	      1.22927211	      6.74407092	     -0.19889733	      1.87865070	      0.89410487	     -0.23324917	     25.14015367	     -8.09493842	     -2.60478170	    -72.02773683	     -5.12977894	      1.65697161	      0.00000000	     -1.79491767	     12.92559513	      0.38490455	     -3.18032385	      9.42182399	     -7.52324882	      0.00000000	    -19.89633925	     -7.84982968	     -4.92006870
      6.83000000	      1.03545609	      6.55634975	      0.35502033	      1.88905825	      0.89390576	     -0.23442916	     26.41564637	     -7.97354065	     -3.03019951	    -70.85333035	     -2.66766819	      2.00525709	      0.00000000	     -2.56604708	     12.74811272	      1.22241064	     -2.88192298	      9.84506624	     -7.58588945	      0.00000000	    -19.96934707	     -7.49148891	     -5.33836647
